<svg id="Layer_1" viewBox="0 0 24 24" xmlns="http://www.w3.org/2000/svg" data-name="Layer 1"><path d="m24 12.5v3c0 2.481-2.019 4.5-4.5 4.5h-7v3h5c.276 0 .5.224.5.5s-.224.5-.5.5h-11c-.276 0-.5-.224-.5-.5s.224-.5.5-.5h5v-3h-7c-2.481 0-4.5-2.019-4.5-4.5v-9c0-2.481 2.019-4.5 4.5-4.5h6c.276 0 .5.224.5.5s-.224.5-.5.5h-6c-1.93 0-3.5 1.57-3.5 3.5v9c0 1.93 1.57 3.5 3.5 3.5h15c1.93 0 3.5-1.57 3.5-3.5v-3c0-.276.224-.5.5-.5s.5.224.5.5zm-7.5-6.5c0-1.103.897-2 2-2s2 .897 2 2-.897 2-2 2-2-.897-2-2zm1 0c0 .551.449 1 1 1s1-.449 1-1-.449-1-1-1-1 .449-1 1zm-3.64.987.234-.137c-.064-.3-.094-.576-.094-.85s.03-.551.094-.85l-.234-.137c-.703-.394-.957-1.367-.532-2.053.393-.704 1.368-.956 2.053-.533l.223.131c.408-.34.881-.606 1.396-.786v-.271c0-.827.673-1.5 1.5-1.5s1.5.673 1.5 1.5v.271c.515.18.988.446 1.396.786l.223-.131c.688-.422 1.659-.171 2.053.534.424.686.17 1.659-.533 2.053l-.234.137c.064.3.094.576.094.85s-.03.551-.094.85l.234.137c.703.394.957 1.367.532 2.053-.418.713-1.339.952-2.053.533l-.223-.131c-.408.34-.881.606-1.396.786v.271c0 .827-.673 1.5-1.5 1.5s-1.5-.673-1.5-1.5v-.271c-.515-.18-.988-.446-1.396-.786l-.223.131c-.714.419-1.635.179-2.053-.533-.424-.687-.17-1.659.533-2.053zm1.063.536-.556.327c-.235.131-.318.455-.178.684.131.235.456.319.685.178l.541-.318c.079-.046.167-.069.253-.069.129 0 .258.05.354.147.429.43.983.742 1.603.903.221.057.375.256.375.484v.642c0 .276.224.5.5.5s.5-.224.5-.5v-.642c0-.228.154-.427.375-.484.619-.161 1.173-.473 1.603-.903.161-.162.411-.193.607-.078l.541.318c.228.142.553.056.684-.178.141-.229.058-.553-.177-.684l-.556-.327c-.196-.115-.29-.349-.228-.568.103-.361.151-.664.151-.955s-.048-.594-.151-.955c-.062-.219.031-.453.228-.568l.556-.327c.235-.131.318-.455.178-.684-.132-.235-.456-.321-.685-.178l-.541.318c-.197.115-.446.083-.607-.078-.43-.43-.984-.743-1.603-.903-.221-.057-.375-.256-.375-.484v-.642c0-.276-.224-.5-.5-.5s-.5.224-.5.5v.642c0 .228-.154.427-.375.484-.619.16-1.173.473-1.603.903-.161.162-.41.193-.607.078l-.541-.318c-.23-.142-.552-.057-.684.177-.141.23-.058.553.177.685l.556.327c.196.115.29.349.228.568-.103.361-.151.664-.151.955s.048.594.151.955c.062.219-.031.453-.228.568z"/></svg>